<?xml version="1.0" encoding="utf-8"?>
<!-- Generator: Adobe Illustrator 16.0.4, SVG Export Plug-In . SVG Version: 6.00 Build 0)  -->
<!DOCTYPE svg PUBLIC "-//W3C//DTD SVG 1.1//EN" "http://www.w3.org/Graphics/SVG/1.1/DTD/svg11.dtd">
<svg version="1.1" id="svg-logo" xmlns="http://www.w3.org/2000/svg" xmlns:xlink="http://www.w3.org/1999/xlink" x="0px" y="0px"
	 viewBox="0 0 764.388 122.715" enable-background="new 0 0 764.388 122.715"
	 xml:space="preserve">
<polygon fill="#FFFFFF" points="594.045,53.458 562.646,20.364 553.716,20.364 589.59,59.108 563.41,92.301 572.353,92.072
	628.98,20.364 620.146,20.364 "/>
<path fill="#FFFFFF" d="M361.922,72.581V40.028c0-10.965-8.922-19.883-19.884-19.883h-31.612c-10.961,0-19.883,8.922-19.883,19.883
	v32.553c0,10.969,8.922,19.883,19.883,19.883h31.612C353,92.467,361.922,83.549,361.922,72.581z M355.02,72.581
	c0,7.158-5.825,12.983-12.98,12.983h-31.613c-7.155,0-12.98-5.829-12.98-12.983V40.032c0-7.166,5.825-12.983,12.98-12.983l0,0
	h31.612c7.16,0,12.98,5.821,12.98,12.979L355.02,72.581L355.02,72.581z"/>
<path fill="#FFFFFF" d="M673.194,72.581V20.228h-6.902v52.355c0,10.969,8.922,19.879,19.884,19.879h19.475
	c3.72,0,8.096-3.006,8.096-6.898h-27.569C679.019,85.561,673.194,79.741,673.194,72.581z"/>
<path fill="#FFFFFF" d="M382.612,39.712c0,10.965,8.926,19.796,19.888,19.796h29.831c7.159,0,12.979,5.627,12.979,12.791
	c0,7.163-5.825,12.89-12.979,12.89H385.02c0,4.852,4.021,6.902,10.149,6.902h37.161c10.965,0,19.883-8.827,19.883-19.792
	c0-10.966-8.918-19.697-19.883-19.697h-29.831c-7.164,0-12.989-5.733-12.989-12.89c0-7.168,5.829-12.993,12.989-12.993h45.623
	c0-4.016-3.544-6.891-8.896-6.898h-36.748C391.526,19.829,382.612,28.75,382.612,39.712z"/>
<path fill="#FFFFFF" d="M471.982,39.712c0,10.965,8.919,19.796,19.884,19.796h29.839c7.159,0,12.979,5.627,12.979,12.791
	c0,7.163-5.825,12.89-12.979,12.89h-47.308c0,4.852,4.017,6.902,10.146,6.902h37.161c10.961,0,19.883-8.827,19.883-19.792
	c0-10.966-8.918-19.697-19.883-19.697h-29.839c-7.156,0-12.981-5.733-12.981-12.89c0-7.168,5.829-12.993,12.981-12.993h45.635
	c0-4.016-3.548-6.891-8.897-6.898h-36.758C480.888,19.829,471.982,28.75,471.982,39.712z"/>
<path fill="#FFFFFF" d="M257.722,54.36c3.961-3.596,6.491-8.751,6.543-14.509h-6.901c-0.072,7.151-5.952,12.862-13.108,12.791
	H211.87v6.897h37.728c7.155-0.071,13.036,5.754,13.107,12.914c-0.071,7.162-5.952,12.896-13.107,12.825H211.87v6.938h37.66
	c10.969,0.105,19.974-8.804,20.076-19.765C269.531,64.411,264.648,57.461,257.722,54.36z"/>
<path fill="#FFFFFF" d="M757.528,92.293c3.296,0,6.859-1.398,6.859-6.047V20.565h-6.859V92.293z"/>
<path fill="#FFFFFF" d="M254.55,20.213h-43.726v7.017h53.443C264.269,22.827,260.613,20.213,254.55,20.213z"/>
<rect x="196.706" y="20.213" fill="#FFFFFF" width="7.041" height="72.005"/>
<rect x="719.747" y="20.387" fill="#FFFFFF" width="7.028" height="71.831"/>
<path fill="#FFFFFF" d="M89.359,68.118l4.36,4.354L89.359,68.118c-3.417,3.346-8.379,4.121-12.538,2.388
	C80.98,72.241,85.942,71.463,89.359,68.118z"/>
<path fill="#FFFFFF" d="M69.603,32.648c3.334,3.334,30.068,30.072,31.969,31.978C99.675,62.72,72.937,35.982,69.603,32.648z"/>
<polygon fill="#FFFFFF" points="51.818,51.082 49.64,53.259 58.368,61.983 49.644,53.259 "/>
<polygon fill="#FFFFFF" points="54,48.904 53.996,48.907 63.512,58.416 "/>
<polygon fill="#FFFFFF" points="41.53,77.653 33.392,69.511 29.017,73.895 33.392,69.519 "/>
<path fill="#FFFFFF" d="M74.596,79.455c1.722,4.186,0.907,9.194-2.452,12.621c-1.71,1.679-3.813,2.716-6.007,3.111
	c2.194-0.399,4.297-1.434,6.007-3.111C75.503,88.65,76.319,83.632,74.596,79.455z"/>
<polygon fill="#FFFFFF" points="23.881,68.763 69.231,23.409 23.881,68.759 "/>
<path fill="#FFFFFF" d="M26.474,111.825c27.871,19.27,66.084,12.291,85.35-15.582c19.261-27.871,12.292-66.09-15.579-85.352
	C68.371-8.378,30.157-1.401,10.888,26.47C-8.378,54.344-1.4,92.554,26.474,111.825z M76.501,96.435
	c-0.875,0.859-1.814,1.604-2.804,2.245c-6.942,4.487-16.347,3.671-22.347-2.451L29.016,73.891l4.375-4.38l8.138,8.142l14.244,14.24
	c2.796,2.853,6.708,3.96,10.368,3.295c2.193-0.399,4.292-1.434,6.007-3.111c3.354-3.423,4.174-8.437,2.452-12.621
	c-0.574-1.395-1.43-2.692-2.57-3.811L58.372,61.983l-8.728-8.724l2.178-2.178L54,48.903l0,0l0,0l9.512,9.513l9.516,9.512
	c1.117,1.133,2.412,1.992,3.797,2.57c4.154,1.733,9.12,0.958,12.538-2.394l4.36,4.36c-3.675,3.604-8.522,5.263-13.29,5.033
	C82.841,83.827,81.534,91.299,76.501,96.435z M73.697,27.872c0,0,23.237,23.232,26.171,26.176c3.829,3.821,4.487,7.785,1.703,10.573
	c-1.896-1.9-28.631-28.64-31.969-31.978c-0.222-0.222-0.341-0.341-0.341-0.341L73.697,27.872z M64.783,18.961l4.447,4.447
	L23.88,68.762v-0.004v0.004l-4.443-4.447L64.783,18.961z"/>
<polygon fill="#FFFFFF" points="53.996,48.904 51.818,51.082 53.996,48.907 "/>
<path fill="#FFFFFF" d="M58.368,61.983l13.658,13.662c1.141,1.117,1.996,2.416,2.57,3.811c-0.574-1.397-1.434-2.7-2.574-3.817
	L58.368,61.983z"/>
<path fill="#FFFFFF" d="M76.821,70.501c-1.386-0.578-2.681-1.438-3.797-2.57l-9.516-9.512l9.512,9.512
	C74.141,69.068,75.44,69.923,76.821,70.501z"/>
<path fill="#FFFFFF" d="M80.422,77.499c2.419,6.332,1.113,13.801-3.92,18.937C81.534,91.299,82.841,83.827,80.422,77.499
	c4.775,0.236,9.623-1.422,13.293-5.029C90.048,76.065,85.197,77.732,80.422,77.499z"/>
<path fill="#FFFFFF" d="M51.351,96.229c6,6.122,15.405,6.938,22.347,2.451C66.756,103.167,57.346,102.347,51.351,96.229z"/>
<path fill="#FFFFFF" d="M66.142,95.184c-3.659,0.665-7.572-0.442-10.367-3.295l-14.244-14.24l14.24,14.248
	C58.566,94.745,62.483,95.849,66.142,95.184z"/>
<polygon fill="#FFFFFF" points="23.881,68.759 19.437,64.316 23.877,68.763 "/>
<path fill="#FFFFFF" d="M101.571,64.621c2.784-2.788,2.127-6.752-1.703-10.573C103.698,57.873,104.352,61.836,101.571,64.621z"/>
</svg>
